<?xml version="1.0" encoding="UTF-8"?>
<svg width="1266px" height="229px" viewBox="0 0 1266 229" version="1.1" xmlns="http://www.w3.org/2000/svg" xmlns:xlink="http://www.w3.org/1999/xlink">
    <title>Group 2</title>
    <defs>
        <path d="M24.0513241,1.86950807 C-8.01710803,17.9620902 -8.01710803,213.266031 24.0513241,226.637162 C56.1197562,240.008293 242.25,151.477651 242.25,114.658898 C242.25,77.8401439 56.1197562,-14.2230741 24.0513241,1.86950807 Z" id="path-1"></path>
    </defs>
    <g id="Page-1" stroke="none" stroke-width="1" fill="none" fill-rule="evenodd">
        <g id="Large" transform="translate(-114, -1748)">
            <g id="Group-2" transform="translate(114.8858, 1748.3251)">
                <path d="M371.71421,81.8749279 C382.51421,81.8749279 391.347544,85.5749279 398.21421,92.9749279 C405.080877,100.374928 408.51421,111.008261 408.51421,124.874928 L408.51421,184.674928 L383.31421,184.674928 C378.895932,184.674928 375.31421,181.093206 375.31421,176.674928 L375.31421,129.074928 L375.31421,129.074928 C375.31421,123.874928 373.947544,119.941595 371.21421,117.274928 C368.480877,114.608261 364.847544,113.274928 360.31421,113.274928 C355.11421,113.274928 351.080877,114.841595 348.21421,117.974928 C345.347544,121.108261 343.91421,125.608261 343.91421,131.474928 L343.91421,176.674928 C343.91421,181.093206 340.332488,184.674928 335.91421,184.674928 L310.71421,184.674928 L310.71421,184.674928 L310.71421,44.6749279 L335.91421,44.6749279 C340.332488,44.6749279 343.91421,48.2566499 343.91421,52.6749279 L343.91421,94.6749279 L343.91421,94.6749279 C349.91421,86.1415946 359.180877,81.8749279 371.71421,81.8749279 Z" id="Path-Copy-12" fill="#000000" fill-rule="nonzero"></path>
                <polygon id="Path-Copy-13" fill="#000000" fill-rule="nonzero" points="426.51421 184.674928 426.51421 84.6749279 459.71421 84.6749279 459.71421 184.674928"></polygon>
                <path d="M540.91421,116.474928 L520.11421,116.474928 L520.11421,145.474928 C520.11421,149.874928 521.71421,152.608261 524.91421,153.674928 C528.11421,154.741595 533.447544,155.074928 540.91421,154.674928 L540.91421,184.674928 C521.047544,187.074928 507.080877,185.241595 499.01421,179.174928 C490.947544,173.108261 486.91421,162.141595 486.91421,146.274928 L486.91421,116.474928 L471.91421,116.474928 L471.91421,84.6749279 L486.91421,84.6749279 L486.91421,66.6749279 L520.11421,56.6749279 L520.11421,84.6749279 L540.91421,84.6749279 L540.91421,116.474928 Z" id="Path-Copy-14" fill="#000000" fill-rule="nonzero"></path>
                <path d="M673.51421,81.8740359 C685.11421,81.8740359 693.464922,85.5749279 700.198256,92.9749279 C706.931589,100.374928 711.11421,110.541595 711.11421,123.474928 L711.11421,184.674928 L685.71421,184.674928 C681.295932,184.674928 677.71421,181.093206 677.71421,176.674928 L677.71421,127.274928 L677.71421,127.274928 C677.71421,117.941595 673.580877,113.274928 665.31421,113.274928 C660.780877,113.274928 657.347544,114.774928 655.01421,117.774928 C652.680877,120.774928 651.51421,124.874928 651.51421,130.074928 L651.51421,176.674928 C651.51421,181.093206 647.932488,184.674928 643.51421,184.674928 L626.31421,184.674928 C621.895932,184.674928 618.31421,181.093206 618.31421,176.674928 L618.31421,127.274928 L618.31421,127.274928 C618.31421,117.941595 614.11421,113.274928 605.71421,113.274928 C601.180877,113.274928 597.747544,114.774928 595.41421,117.774928 C593.080877,120.774928 591.91421,124.874928 591.91421,130.074928 L591.91421,176.674928 C591.91421,181.093206 588.332488,184.674928 583.91421,184.674928 L558.71421,184.674928 L558.71421,184.674928 C558.71421,143.874928 558.71421,123.474928 558.71421,123.474928 C559.183446,113.274928 559.371321,99.7918886 566.610762,92.9749279 C573.850203,86.1579673 582.528099,81.8740359 595.41421,81.8740359 C608.300322,81.8740359 623.252821,82.1430531 634.91421,99.9127896 C648.947762,82.6407264 661.11421,81.8740359 673.51421,81.8740359 Z" id="Path-Copy-15" fill="#000000" fill-rule="nonzero"></path>
                <path d="M799.51421,84.6749279 L832.71421,84.6749279 L832.71421,184.674928 L799.51421,184.674928 L799.51421,175.474928 C792.71421,183.474928 783.247544,187.474928 771.11421,187.474928 C757.780877,187.474928 746.61421,182.441595 737.61421,172.374928 C728.61421,162.308261 724.11421,149.741595 724.11421,134.674928 C724.11421,119.608261 728.61421,107.041595 737.61421,96.9749279 C746.61421,86.9082613 757.780877,81.8749279 771.11421,81.8749279 C783.247544,81.8749279 792.71421,85.8749279 799.51421,93.8749279 L799.51421,84.6749279 Z M763.31421,150.474928 C767.180877,154.474928 772.247544,156.474928 778.51421,156.474928 C784.780877,156.474928 789.847544,154.474928 793.71421,150.474928 C797.580877,146.474928 799.51421,141.208261 799.51421,134.674928 C799.51421,128.141595 797.580877,122.874928 793.71421,118.874928 C789.847544,114.874928 784.780877,112.874928 778.51421,112.874928 C772.247544,112.874928 767.180877,114.874928 763.31421,118.874928 C759.447544,122.874928 757.51421,128.141595 757.51421,134.674928 C757.51421,141.208261 759.447544,146.474928 763.31421,150.474928 Z" id="Shape-Copy-8" fill="#000000" fill-rule="nonzero"></path>
                <path d="M923.31421,84.6749279 L956.11421,84.6749279 L956.11421,180.674928 C956.11421,188.674928 954.61421,195.774928 951.61421,201.974928 C948.61421,208.174928 944.580877,213.108261 939.51421,216.774928 C934.447544,220.441595 928.880877,223.174928 922.81421,224.974928 C916.747544,226.774928 910.31421,227.674928 903.51421,227.674928 C892.447544,227.674928 882.580877,225.608261 873.91421,221.474928 C865.247544,217.341595 858.71421,211.274928 854.31421,203.274928 L881.91421,187.274928 C886.71421,194.874928 893.780877,198.674928 903.11421,198.674928 C909.11421,198.674928 913.980877,197.141595 917.71421,194.074928 C921.447544,191.008261 923.31421,186.541595 923.31421,180.674928 L923.31421,171.074928 C916.51421,179.341595 907.180877,183.474928 895.31421,183.474928 C881.580877,183.474928 870.21421,178.541595 861.21421,168.674928 C852.21421,158.808261 847.71421,146.808261 847.71421,132.674928 C847.71421,118.541595 852.21421,106.541595 861.21421,96.6749279 C870.21421,86.8082613 881.580877,81.8749279 895.31421,81.8749279 C907.180877,81.8749279 916.51421,86.0082613 923.31421,94.2749279 L923.31421,84.6749279 Z M886.71421,147.674928 C890.71421,151.541595 895.847544,153.474928 902.11421,153.474928 C908.380877,153.474928 913.480877,151.508261 917.41421,147.574928 C921.347544,143.641595 923.31421,138.674928 923.31421,132.674928 C923.31421,126.674928 921.347544,121.708261 917.41421,117.774928 C913.480877,113.841595 908.380877,111.874928 902.11421,111.874928 C895.847544,111.874928 890.747544,113.841595 886.81421,117.774928 C882.880877,121.708261 880.91421,126.674928 880.91421,132.674928 C880.91421,138.674928 882.847544,143.674928 886.71421,147.674928 Z" id="Shape-Copy-9" fill="#000000" fill-rule="nonzero"></path>
                <path d="M1036.31421,81.8749279 C1047.11421,81.8749279 1055.94754,85.5749279 1062.81421,92.9749279 C1069.68088,100.374928 1073.11421,111.008261 1073.11421,124.874928 L1073.11421,184.674928 L1047.91421,184.674928 C1043.49593,184.674928 1039.91421,181.093206 1039.91421,176.674928 L1039.91421,129.074928 L1039.91421,129.074928 C1039.91421,123.874928 1038.54754,119.941595 1035.81421,117.274928 C1033.08088,114.608261 1029.44754,113.274928 1024.91421,113.274928 C1019.71421,113.274928 1015.68088,114.841595 1012.81421,117.974928 C1009.94754,121.108261 1008.51421,125.608261 1008.51421,131.474928 L1008.51421,176.674928 C1008.51421,181.093206 1004.93249,184.674928 1000.51421,184.674928 L975.31421,184.674928 L975.31421,184.674928 L975.31421,84.6749279 L1008.51421,84.6749279 L1008.51421,94.6749279 C1014.51421,86.1415946 1023.78088,81.8749279 1036.31421,81.8749279 Z" id="Path-Copy-16" fill="#000000" fill-rule="nonzero"></path>
                <path d="M1120.51421,146.874928 C1123.84754,155.008261 1131.31421,159.074928 1142.91421,159.074928 C1150.11421,159.074928 1156.18088,156.741595 1161.11421,152.074928 L1185.11421,168.874928 C1175.24754,181.274928 1160.91421,187.474928 1142.11421,187.474928 C1125.18088,187.474928 1111.61421,182.508261 1101.41421,172.574928 C1091.21421,162.641595 1086.11421,150.074928 1086.11421,134.874928 C1086.11421,119.808261 1091.11421,107.208261 1101.11421,97.0749279 C1111.11421,86.9415946 1123.84754,81.8749279 1139.31421,81.8749279 C1154.24754,81.8749279 1166.58088,86.8749279 1176.31421,96.8749279 C1186.04754,106.874928 1190.91421,119.408261 1190.91421,134.474928 C1190.91421,138.874928 1190.44754,143.008261 1189.51421,146.874928 L1120.51421,146.874928 Z M1120.11421,123.874928 L1158.51421,123.874928 C1155.84754,114.541595 1149.58088,109.874928 1139.71421,109.874928 C1129.44754,109.874928 1122.91421,114.541595 1120.11421,123.874928 Z" id="Shape-Copy-10" fill="#000000" fill-rule="nonzero"></path>
                <path d="M1264.51421,116.474928 L1243.71421,116.474928 L1243.71421,145.474928 C1243.71421,149.874928 1245.31421,152.608261 1248.51421,153.674928 C1251.71421,154.741595 1257.04754,155.074928 1264.51421,154.674928 L1264.51421,184.674928 C1244.64754,187.074928 1230.68088,185.241595 1222.61421,179.174928 C1214.54754,173.108261 1210.51421,162.141595 1210.51421,146.274928 L1210.51421,116.474928 L1195.51421,116.474928 L1195.51421,84.6749279 L1210.51421,84.6749279 L1210.51421,66.6749279 L1243.71421,56.6749279 L1243.71421,84.6749279 L1264.51421,84.6749279 L1264.51421,116.474928 Z" id="Path-Copy-17" fill="#000000" fill-rule="nonzero"></path>
                <path d="M429.375624,41.2623871 C424.874792,43.5209951 424.874792,70.9320746 429.375624,72.8087245 C433.876457,74.6853745 460,62.2600212 460,57.0924768 C460,51.9249325 433.876457,39.0037791 429.375624,41.2623871 Z" id="Path-2-Copy-2" fill="#DC0202"></path>
                <g id="Group-Copy">
                    <g id="Path-2-Copy-3">
                        <mask id="mask-2" fill="white">
                            <use xlink:href="#path-1"></use>
                        </mask>
                        <use id="Mask" fill="#DC0202" xlink:href="#path-1"></use>
                        <path d="M55.7075573,41.6891169 C50.281211,44.1085511 45.7578135,51.0114039 42.1373651,60.8942563 C24.0004299,110.403221 28.5238273,234.698009 55.7075573,244.768664 C88.3176338,256.849598 277.591667,176.861387 277.591667,143.59532 C277.591667,110.329253 88.3176338,27.1493278 55.7075573,41.6891169 Z" fill="#DC0202" style="mix-blend-mode: normal;" mask="url(#mask-2)"></path>
                    </g>
                    <polygon id="Path-3" fill="#FFFFFF" points="90.4382275 178.674928 132.231579 89.0339762 103.802571 104.589559 107.225107 55.6749279 77.1142102 134.683026 97.9648841 125.615391"></polygon>
                </g>
            </g>
        </g>
    </g>
</svg>